<svg xmlns="http://www.w3.org/2000/svg" xmlns:xlink="http://www.w3.org/1999/xlink" width="500" zoomAndPan="magnify" viewBox="0 0 375 374.999991" height="500" preserveAspectRatio="xMidYMid meet" version="1.0"><defs><clipPath id="1c3c74cced"><path d="M 13 12.539062 L 362 12.539062 L 362 361 L 13 361 Z M 13 12.539062 " clip-rule="nonzero"/></clipPath></defs><g clip-path="url(#1c3c74cced)"><path fill="#ffffff" d="M 360.914062 189.6875 C 360.914062 193.382812 360.398438 197.15625 361.011719 200.753906 C 363.355469 214.648438 358.621094 225.492188 347.261719 233.476562 C 331.910156 244.246094 325.308594 258.585938 328.707031 277.265625 C 330.480469 287.023438 326.761719 294.21875 319.320312 300.773438 C 309.460938 309.445312 300.765625 319.425781 291.105469 328.371094 C 288.566406 330.734375 284.402344 332.335938 280.878906 332.511719 C 270.035156 333.027344 259.144531 333.027344 248.300781 332.558594 C 243.128906 332.335938 239.605469 334.1875 236.226562 337.683594 C 230.140625 343.992188 224.054688 350.351562 217.476562 356.140625 C 214.988281 358.335938 211.117188 360.035156 207.839844 360.109375 C 191.898438 360.503906 175.957031 360.550781 160.011719 360.109375 C 156.5625 360.011719 152.496094 358.136719 149.910156 355.773438 C 141.554688 348.15625 133.941406 339.730469 125.589844 332.117188 C 123.199219 329.921875 119.328125 328.519531 116.050781 328.320312 C 107.304688 327.804688 98.457031 328.59375 89.734375 327.902344 C 85.765625 327.582031 81.109375 325.929688 78.277344 323.292969 C 66.816406 312.574219 55.753906 301.386719 44.960938 290.003906 C 42.71875 287.636719 41.140625 283.695312 41.019531 280.394531 C 40.550781 269.109375 41.167969 257.746094 40.648438 246.460938 C 40.476562 242.960938 38.703125 238.945312 36.386719 236.285156 C 30.472656 229.507812 23.574219 223.59375 17.632812 216.84375 C 15.441406 214.355469 13.742188 210.511719 13.667969 207.234375 C 13.273438 190.847656 13.296875 174.433594 13.691406 158.046875 C 13.765625 155.015625 15.589844 151.445312 17.707031 149.175781 C 25.421875 140.898438 33.796875 133.257812 41.460938 124.953125 C 43.679688 122.539062 45.304688 118.746094 45.480469 115.46875 C 45.996094 106.03125 45.40625 96.542969 45.824219 87.082031 C 45.945312 84.199219 47.328125 80.746094 49.296875 78.679688 C 60.804688 66.679688 72.535156 54.898438 84.511719 43.34375 C 86.382812 41.519531 89.757812 40.507812 92.46875 40.410156 C 103.78125 40.089844 115.117188 40.039062 126.425781 40.410156 C 131.28125 40.558594 134.730469 39.003906 137.957031 35.605469 C 144.167969 29.097656 150.425781 22.59375 157.203125 16.65625 C 159.667969 14.488281 163.5625 12.984375 166.839844 12.886719 C 182.066406 12.492188 197.34375 12.910156 212.574219 12.539062 C 218.140625 12.417969 222.207031 14.117188 225.976562 18.085938 C 233.445312 25.945312 241.058594 33.707031 249.015625 41.074219 C 251.257812 43.144531 254.90625 44.523438 257.960938 44.671875 C 266.957031 45.140625 276 44.402344 284.96875 45.042969 C 288.714844 45.3125 293.125 46.964844 295.835938 49.476562 C 307.148438 60.023438 318.113281 70.941406 328.734375 82.203125 C 331.296875 84.914062 333.167969 89.296875 333.363281 93.019531 C 333.957031 104.058594 333.21875 115.195312 333.734375 126.261719 C 333.90625 129.785156 335.558594 133.851562 337.875 136.511719 C 343.445312 142.96875 349.675781 148.855469 355.886719 154.722656 C 359.484375 158.121094 361.257812 161.769531 360.988281 166.871094 C 360.570312 174.460938 360.890625 182.097656 360.890625 189.710938 Z M 187.390625 263.441406 C 195.691406 263.441406 204.046875 263.882812 212.300781 263.242188 C 216.023438 262.972656 220.433594 261.46875 223.070312 258.980469 C 235.636719 247.101562 247.910156 234.878906 259.808594 222.335938 C 262.324219 219.675781 264.046875 215.214844 264.148438 211.519531 C 264.617188 194.46875 264.542969 177.390625 264.195312 160.316406 C 264.148438 157.257812 262.667969 153.488281 260.550781 151.320312 C 247.882812 138.210938 234.945312 125.398438 221.863281 112.707031 C 220.113281 111.007812 217.15625 109.675781 214.742188 109.652344 C 196.507812 109.40625 178.273438 109.429688 160.035156 109.652344 C 157.574219 109.675781 154.515625 110.785156 152.792969 112.460938 C 139.558594 125.324219 126.476562 138.335938 113.6875 151.617188 C 111.59375 153.785156 110.285156 157.628906 110.238281 160.734375 C 109.941406 178.253906 110.015625 195.800781 110.308594 213.320312 C 110.359375 215.980469 111.589844 219.234375 113.414062 221.128906 C 125.910156 234.066406 138.597656 246.855469 151.558594 259.324219 C 153.902344 261.566406 157.820312 263.070312 161.097656 263.292969 C 169.84375 263.835938 178.617188 263.464844 187.390625 263.464844 Z M 119.304688 318.414062 C 119.304688 315.507812 119.304688 313.265625 119.304688 310.996094 C 119.304688 297.617188 119.453125 284.210938 119.230469 270.832031 C 119.132812 265.460938 121.226562 263.195312 126.574219 263.414062 C 131.058594 263.613281 135.542969 263.464844 140.175781 263.464844 C 121.152344 244.367188 102.671875 225.863281 83.523438 206.640625 C 78.128906 212.210938 73.003906 218.960938 66.523438 223.941406 C 53.042969 234.265625 47.054688 247.003906 49.988281 263.882812 C 50.578125 267.234375 50.0625 270.78125 50.0625 274.257812 C 50.0625 282.855469 51.910156 285.839844 60.855469 290.570312 L 60.855469 263.195312 C 64.28125 263.367188 66.695312 263.464844 69.601562 263.613281 C 69.601562 273.691406 70.121094 283.175781 69.453125 292.542969 C 68.839844 300.820312 72.632812 305.871094 80.125 310.726562 L 80.125 264.007812 L 89.6875 264.007812 L 89.6875 318.242188 L 99.910156 318.242188 L 99.910156 263.785156 L 109.027344 263.785156 L 109.027344 318.390625 L 119.304688 318.390625 Z M 274.003906 244.984375 C 289.75 244.984375 304.730469 245.132812 319.714844 244.835938 C 321.859375 244.785156 324.296875 242.960938 325.996094 241.335938 C 332.847656 234.804688 339.082031 227.609375 346.253906 221.476562 C 352.488281 216.152344 352.609375 210.140625 349.578125 202.035156 C 343.765625 208.808594 337.921875 215.585938 331.761719 222.757812 C 328.660156 219.675781 326.710938 217.777344 323.878906 214.945312 C 331.761719 207.355469 338.933594 199.816406 346.769531 193.113281 C 352.90625 187.863281 352.3125 181.902344 350.886719 172.933594 C 339.105469 185.398438 328.558594 196.5625 317.816406 207.898438 C 315.007812 205.261719 313.0625 203.4375 310.277344 200.777344 C 323.605469 187.742188 336.570312 175.074219 349.851562 162.113281 C 347.042969 159.476562 344.773438 157.359375 341.226562 154.03125 C 328.140625 167.363281 315.625 180.152344 302.761719 193.261719 C 301.011719 191.386719 299.164062 189.441406 296.574219 186.707031 C 309.882812 173.695312 322.820312 161.003906 335.066406 149.03125 C 332.796875 146.046875 331.023438 143.707031 328.265625 140.085938 C 316.804688 151.960938 305.816406 163.101562 295.121094 174.535156 C 291.152344 178.773438 287.777344 178.671875 284.105469 174.632812 C 281.222656 171.453125 278.488281 168.175781 275.679688 164.921875 C 275.113281 165.367188 274.519531 165.808594 273.953125 166.253906 L 273.953125 244.933594 Z M 23.546875 199.175781 C 35.078125 187.222656 45.726562 176.160156 56.394531 165.070312 C 59.128906 167.730469 61.078125 169.628906 63.761719 172.265625 C 50.753906 184.757812 37.644531 197.328125 25.59375 208.882812 C 28.105469 212.457031 29.90625 214.996094 32.371094 218.492188 C 45.578125 205.0625 58.144531 192.273438 70.488281 179.707031 C 72.855469 181.800781 75 183.675781 77.808594 186.164062 C 70.835938 192.867188 64.378906 199.101562 57.898438 205.335938 C 51.34375 211.667969 44.789062 217.976562 38.011719 224.480469 C 41.242188 227.511719 43.359375 229.484375 45.773438 231.75 C 57.085938 220.441406 68.125 209.671875 78.820312 198.535156 C 83.230469 193.925781 86.777344 193.851562 90.769531 198.65625 C 93.355469 201.761719 96.066406 204.792969 98.730469 207.847656 C 99.320312 207.429688 99.910156 207.011719 100.503906 206.617188 C 100.601562 204.644531 100.800781 202.675781 100.800781 200.679688 C 100.824219 181.53125 100.824219 162.386719 100.824219 143.238281 C 100.824219 127.910156 100.824219 127.886719 85.742188 127.960938 C 74.457031 128.011719 61.839844 125.101562 52.230469 129.191406 C 42.375 133.40625 35.722656 144.839844 27.144531 152.527344 C 21.355469 157.726562 22.242188 163.46875 23.472656 171.847656 C 30.644531 163.960938 36.65625 157.332031 42.84375 150.53125 C 45.75 153.242188 47.769531 155.117188 51 158.121094 C 43.410156 165.242188 36.683594 172.242188 29.191406 178.328125 C 22.785156 183.550781 21.207031 189.613281 23.472656 199.125 Z M 291.152344 166.84375 C 298.277344 159.304688 305.050781 151.097656 312.9375 144.078125 C 321.4375 136.511719 326.292969 128.332031 324.46875 116.527344 C 323.558594 110.664062 323.632812 104.453125 324.46875 98.5625 C 325.652344 90.039062 319.835938 86.734375 313.527344 82.84375 L 313.527344 109.257812 L 304.78125 109.257812 C 304.78125 98.933594 304.191406 89.003906 304.953125 79.195312 C 305.617188 70.890625 301.035156 66.949219 294.039062 61.996094 L 294.039062 109.578125 C 290.636719 109.40625 288.195312 109.308594 285.09375 109.160156 L 285.09375 54.726562 L 274.472656 54.726562 L 274.472656 109.207031 L 265.355469 109.207031 L 265.355469 54.777344 L 255.128906 54.777344 C 255.128906 70.496094 254.882812 85.699219 255.25 100.878906 C 255.425781 107.632812 252.863281 110.121094 246.308594 109.554688 C 242.339844 109.207031 238.324219 109.480469 233.640625 109.480469 C 252.933594 128.726562 271.367188 147.082031 291.152344 166.820312 Z M 233.445312 328.097656 C 221.617188 316.445312 210.625 305.625 199.636719 294.785156 C 194.191406 289.410156 194.238281 288.03125 199.785156 282.488281 C 202.542969 279.726562 205.15625 276.796875 208.433594 273.320312 L 128.867188 273.320312 C 128.867188 289.140625 128.765625 304.542969 129.011719 319.917969 C 129.039062 321.667969 130.738281 323.640625 132.09375 325.042969 C 139.019531 332.140625 146.433594 338.816406 153.039062 346.1875 C 158.214844 351.925781 163.90625 351.261719 171.324219 348.328125 C 164.71875 342.664062 158.113281 336.96875 151.019531 330.882812 C 154.246094 327.828125 156.316406 325.882812 158.976562 323.34375 C 166.394531 331.007812 173.710938 337.785156 180.046875 345.398438 C 185.394531 351.828125 191.503906 351.210938 200.570312 350.03125 C 188.203125 338.078125 177.1875 327.433594 165.925781 316.566406 C 168.21875 313.980469 170.015625 311.957031 172.703125 308.902344 C 185.960938 322.679688 198.402344 335.613281 211.734375 349.488281 C 214.199219 346.726562 216.144531 344.558594 219.152344 341.183594 C 205.671875 328.417969 192.539062 315.976562 179.652344 303.753906 C 182.289062 300.378906 183.964844 298.234375 186.675781 294.757812 C 200.152344 308.632812 212.792969 321.617188 225.855469 335.074219 C 228.417969 332.730469 230.585938 330.761719 233.445312 328.125 Z M 141.679688 45.585938 C 153.234375 56.945312 164.347656 67.984375 175.636719 78.851562 C 179.429688 82.496094 179.75 85.628906 175.757812 89.296875 C 172.53125 92.28125 169.621094 95.605469 166 99.402344 L 245.640625 99.402344 C 245.640625 94.175781 245.691406 89.570312 245.640625 84.960938 C 245.492188 73.675781 248.328125 61.109375 244.285156 51.449219 C 240.21875 41.789062 228.910156 35.332031 221.46875 26.832031 C 216.121094 20.722656 210.257812 21.804688 201.828125 23.011719 C 209.617188 30.011719 216.121094 35.851562 223.316406 42.332031 C 220.582031 45.214844 218.585938 47.308594 215.824219 50.242188 C 208.210938 42.257812 201.015625 35.679688 195.003906 28.136719 C 189.632812 21.363281 183.296875 21.632812 173.984375 22.765625 C 186.429688 34.496094 197.589844 45.019531 209.171875 55.910156 C 206.09375 58.792969 204.046875 60.714844 200.546875 64.015625 C 187.585938 50.5625 175.167969 37.699219 162.746094 24.789062 C 160.257812 26.855469 158.039062 28.730469 155.230469 31.046875 C 168.90625 44.476562 181.722656 57.066406 194.832031 69.980469 C 192.488281 72.589844 190.542969 74.734375 188.054688 77.519531 C 174.625 63.867188 162.03125 51.054688 148.601562 37.402344 C 146.359375 40.039062 144.464844 42.28125 141.679688 45.558594 Z M 55.484375 99.128906 L 109.71875 99.128906 L 109.71875 108.148438 L 55.605469 108.148438 L 55.605469 118.71875 C 71.550781 118.71875 87 118.867188 102.425781 118.648438 C 108.042969 118.574219 110.53125 120.667969 110.1875 126.359375 C 109.917969 130.722656 110.136719 135.132812 110.136719 138.976562 C 129.0625 120.199219 147.640625 101.765625 167.085938 82.472656 C 164.300781 80.007812 161.121094 77.347656 158.113281 74.488281 C 149.636719 66.382812 142.515625 55.023438 132.414062 50.90625 C 122.3125 46.765625 109.226562 50.167969 97.496094 49.625 C 89.957031 49.28125 86.828125 53.890625 82.488281 60.023438 L 109.988281 60.023438 L 109.988281 69.242188 C 99.125 69.242188 88.75 69.757812 78.472656 69.066406 C 70.5625 68.550781 67.410156 73.429688 62.828125 79.464844 L 109.695312 79.464844 L 109.695312 88.855469 L 55.457031 88.855469 L 55.457031 99.128906 Z M 206.90625 290.964844 C 210.035156 293.476562 213.855469 296.140625 217.207031 299.316406 C 225.410156 307.054688 232.164062 318.046875 241.847656 322.039062 C 251.554688 326.027344 264.148438 322.628906 275.410156 323.417969 C 283.390625 323.984375 287.308594 319.671875 292.042969 313.167969 L 264.417969 313.167969 L 264.417969 303.703125 C 274.644531 303.703125 284.402344 302.988281 293.988281 303.925781 C 302.292969 304.738281 306.480469 300.230469 311.925781 293.675781 L 264.566406 293.675781 L 264.566406 284.089844 L 318.777344 284.089844 L 318.777344 273.617188 L 264.714844 273.617188 L 264.714844 264.796875 L 318.800781 264.796875 L 318.800781 254.324219 C 315.695312 254.324219 313.183594 254.324219 310.671875 254.324219 C 297.734375 254.324219 284.796875 254.148438 271.859375 254.347656 C 266.144531 254.445312 263.902344 252.179688 264.320312 246.511719 C 264.640625 242.25 264.394531 237.9375 264.394531 233.351562 C 245.371094 252.425781 227.035156 270.808594 206.90625 290.941406 Z M 206.90625 290.964844 " fill-opacity="1" fill-rule="nonzero"/></g><path fill="#ff8300" d="M 238.71875 206.839844 L 197.046875 206.839844 L 187.511719 197.300781 L 177.953125 206.839844 L 136.28125 206.839844 L 187.511719 155.632812 Z M 238.71875 206.839844 " fill-opacity="1" fill-rule="evenodd"/></svg>